<svg data-v-423bf9ae="" xmlns="http://www.w3.org/2000/svg" viewBox="0 0 548 90" class="iconLeft"><!----><!----><!----><g data-v-423bf9ae="" id="5e680014-e011-4222-9ad0-c24e25c89771" fill="white" transform="matrix(5.8365760270947415,0,0,5.8365760270947415,102.17899426032773,-6.245136158813153)"><path d="M7.43 6.73L7.43 6.73L7.43 6.73Q7.43 7.69 6.91 8.45L6.91 8.45L6.91 8.45Q6.38 9.21 5.29 9.45L5.29 9.45L7.39 13.75L6.06 13.75L4.02 9.55L2.55 9.55L2.55 13.75L1.34 13.75L1.34 3.95L4.35 3.95L4.35 3.95Q5.99 3.95 6.71 4.74L6.71 4.74L6.71 4.74Q7.43 5.53 7.43 6.73ZM4.38 5.05L2.55 5.05L2.55 8.44L4.38 8.44L4.38 8.44Q5.36 8.44 5.80 7.96L5.80 7.96L5.80 7.96Q6.24 7.48 6.24 6.76L6.24 6.76L6.24 6.76Q6.24 6.09 5.81 5.57L5.81 5.57L5.81 5.57Q5.38 5.05 4.38 5.05L4.38 5.05ZM16.07 9.86L16.07 9.86L16.07 9.86Q16.07 10.32 16.03 10.64L16.03 10.64L11.03 10.64L11.03 10.64Q11.17 11.68 11.71 12.26L11.71 12.26L11.71 12.26Q12.25 12.84 13.12 12.84L13.12 12.84L13.12 12.84Q14.03 12.84 14.78 12.22L14.78 12.22L15.46 13.01L15.46 13.01Q14.45 13.92 13.08 13.92L13.08 13.92L13.08 13.92Q11.58 13.92 10.69 12.85L10.69 12.85L10.69 12.85Q9.80 11.79 9.80 10.16L9.80 10.16L9.80 10.16Q9.80 8.41 10.69 7.42L10.69 7.42L10.69 7.42Q11.58 6.43 13.08 6.43L13.08 6.43L13.08 6.43Q14.39 6.43 15.23 7.29L15.23 7.29L15.23 7.29Q16.07 8.16 16.07 9.86ZM11.00 9.60L11.00 9.60L14.88 9.60L14.88 9.60Q14.85 8.47 14.32 7.98L14.32 7.98L14.32 7.98Q13.79 7.49 13.08 7.49L13.08 7.49L13.08 7.49Q12.12 7.49 11.60 8.05L11.60 8.05L11.60 8.05Q11.07 8.61 11.00 9.60ZM21.34 13.92L21.34 13.92L21.34 13.92Q19.91 13.92 19.08 12.91L19.08 12.91L19.08 12.91Q18.26 11.90 18.26 10.16L18.26 10.16L18.26 10.16Q18.26 8.43 19.09 7.43L19.09 7.43L19.09 7.43Q19.92 6.43 21.32 6.43L21.32 6.43L21.32 6.43Q22.47 6.43 23.25 7.10L23.25 7.10L23.25 4.21L24.44 3.64L24.44 13.75L23.25 13.75L23.25 13.16L23.25 13.16Q22.55 13.92 21.34 13.92ZM21.49 12.81L21.49 12.81L21.49 12.81Q22.69 12.81 23.25 11.83L23.25 11.83L23.25 8.44L23.25 8.44Q22.64 7.52 21.48 7.52L21.48 7.52L21.48 7.52Q20.51 7.52 19.99 8.20L19.99 8.20L19.99 8.20Q19.47 8.89 19.47 10.16L19.47 10.16L19.47 10.16Q19.47 11.31 20.02 12.06L20.02 12.06L20.02 12.06Q20.57 12.81 21.49 12.81ZM30.25 13.92L30.25 13.92L30.25 13.92Q29.13 13.92 28.29 13.30L28.29 13.30L28.29 13.30Q27.44 12.68 27.13 11.75L27.13 11.75L28.25 11.34L28.25 11.34Q28.53 12.01 29.08 12.41L29.08 12.41L29.08 12.41Q29.62 12.81 30.31 12.81L30.31 12.81L30.31 12.81Q31.08 12.81 31.53 12.38L31.53 12.38L31.53 12.38Q31.98 11.96 31.98 11.17L31.98 11.17L31.98 11.17Q31.98 9.90 30.00 9.04L30.00 9.04L30.00 9.04Q29.44 8.81 29.06 8.59L29.06 8.59L29.06 8.59Q28.69 8.37 28.27 8.03L28.27 8.03L28.27 8.03Q27.86 7.69 27.64 7.22L27.64 7.22L27.64 7.22Q27.43 6.75 27.43 6.16L27.43 6.16L27.43 6.16Q27.43 5.15 28.17 4.47L28.17 4.47L28.17 4.47Q28.91 3.78 30.14 3.78L30.14 3.78L30.14 3.78Q31.14 3.78 31.84 4.26L31.84 4.26L31.84 4.26Q32.55 4.75 32.76 5.52L32.76 5.52L31.65 5.88L31.65 5.88Q31.47 5.45 31.07 5.17L31.07 5.17L31.07 5.17Q30.66 4.89 30.10 4.89L30.10 4.89L30.10 4.89Q29.44 4.89 29.05 5.23L29.05 5.23L29.05 5.23Q28.66 5.57 28.66 6.16L28.66 6.16L28.66 6.16Q28.66 6.50 28.80 6.76L28.80 6.76L28.80 6.76Q28.95 7.03 29.27 7.25L29.27 7.25L29.27 7.25Q29.60 7.48 29.86 7.62L29.86 7.62L29.86 7.62Q30.11 7.76 30.60 7.97L30.60 7.97L30.60 7.97Q31.14 8.20 31.52 8.44L31.52 8.44L31.52 8.44Q31.91 8.68 32.33 9.06L32.33 9.06L32.33 9.06Q32.76 9.44 32.98 9.96L32.98 9.96L32.98 9.96Q33.21 10.49 33.21 11.13L33.21 11.13L33.21 11.13Q33.21 12.43 32.38 13.17L32.38 13.17L32.38 13.17Q31.56 13.92 30.25 13.92ZM41.94 9.86L41.94 9.86L41.94 9.86Q41.94 10.32 41.90 10.64L41.90 10.64L36.90 10.64L36.90 10.64Q37.04 11.68 37.58 12.26L37.58 12.26L37.58 12.26Q38.12 12.84 38.99 12.84L38.99 12.84L38.99 12.84Q39.90 12.84 40.66 12.22L40.66 12.22L41.33 13.01L41.33 13.01Q40.32 13.92 38.95 13.92L38.95 13.92L38.95 13.92Q37.45 13.92 36.56 12.85L36.56 12.85L36.56 12.85Q35.67 11.79 35.67 10.16L35.67 10.16L35.67 10.16Q35.67 8.41 36.56 7.42L36.56 7.42L36.56 7.42Q37.45 6.43 38.95 6.43L38.95 6.43L38.95 6.43Q40.26 6.43 41.10 7.29L41.10 7.29L41.10 7.29Q41.94 8.16 41.94 9.86ZM36.88 9.60L36.88 9.60L40.75 9.60L40.75 9.60Q40.73 8.47 40.19 7.98L40.19 7.98L40.19 7.98Q39.66 7.49 38.95 7.49L38.95 7.49L38.95 7.49Q38.00 7.49 37.47 8.05L37.47 8.05L37.47 8.05Q36.95 8.61 36.88 9.60ZM46.96 13.92L46.96 13.92L46.96 13.92Q45.79 13.92 45.09 13.29L45.09 13.29L45.09 13.29Q44.39 12.67 44.39 11.51L44.39 11.51L44.39 11.51Q44.39 10.35 45.19 9.74L45.19 9.74L45.19 9.74Q45.98 9.14 47.14 9.14L47.14 9.14L47.14 9.14Q48.20 9.14 49.07 9.60L49.07 9.60L49.07 9.06L49.07 9.06Q49.07 7.46 47.56 7.46L47.56 7.46L47.56 7.46Q46.45 7.46 45.29 8.22L45.29 8.22L44.94 7.22L44.94 7.22Q46.23 6.43 47.67 6.43L47.67 6.43L47.67 6.43Q48.13 6.43 48.54 6.53L48.54 6.53L48.54 6.53Q48.94 6.64 49.34 6.90L49.34 6.90L49.34 6.90Q49.74 7.15 49.97 7.69L49.97 7.69L49.97 7.69Q50.20 8.22 50.20 8.97L50.20 8.97L50.20 13.75L49.07 13.75L49.07 13.09L49.07 13.09Q48.17 13.92 46.96 13.92ZM47.11 12.88L47.11 12.88L47.11 12.88Q48.23 12.88 49.07 11.90L49.07 11.90L49.07 10.67L49.07 10.67Q48.24 10.16 47.28 10.16L47.28 10.16L47.28 10.16Q46.52 10.16 46.02 10.51L46.02 10.51L46.02 10.51Q45.51 10.85 45.51 11.51L45.51 11.51L45.51 11.51Q45.51 12.12 45.93 12.50L45.93 12.50L45.93 12.50Q46.35 12.88 47.11 12.88ZM57.82 6.43L57.82 6.43L57.82 6.43Q58.81 6.43 59.39 6.76L59.39 6.76L59.39 9.24L58.20 9.24L58.20 7.62L58.20 7.62Q58.06 7.60 57.76 7.60L57.76 7.60L57.76 7.60Q56.67 7.60 55.92 8.13L55.92 8.13L55.92 8.13Q55.17 8.67 55.17 9.63L55.17 9.63L55.17 12.68L57.26 12.68L57.26 13.75L52.46 13.75L52.46 12.68L53.96 12.68L53.96 7.66L52.46 7.66L52.46 6.59L55.09 6.59L55.09 7.84L55.09 7.84Q55.45 7.20 56.23 6.81L56.23 6.81L56.23 6.81Q57.01 6.43 57.82 6.43ZM64.83 13.92L64.83 13.92L64.83 13.92Q63.43 13.92 62.62 12.93L62.62 12.93L62.62 12.93Q61.81 11.94 61.81 10.18L61.81 10.18L61.81 10.18Q61.81 8.41 62.64 7.42L62.64 7.42L62.64 7.42Q63.46 6.43 64.92 6.43L64.92 6.43L64.92 6.43Q66.86 6.43 67.49 8.08L67.49 8.08L66.39 8.48L66.39 8.48Q65.97 7.52 64.90 7.52L64.90 7.52L64.90 7.52Q63.95 7.52 63.49 8.22L63.49 8.22L63.49 8.22Q63.03 8.92 63.03 10.18L63.03 10.18L63.03 10.18Q63.03 11.44 63.49 12.12L63.49 12.12L63.49 12.12Q63.95 12.81 64.88 12.81L64.88 12.81L64.88 12.81Q66.09 12.81 66.47 11.73L66.47 11.73L67.56 12.12L67.56 12.12Q67.28 12.98 66.57 13.45L66.57 13.45L66.57 13.45Q65.86 13.92 64.83 13.92ZM71.60 13.75L70.41 13.75L70.41 4.20L71.60 3.64L71.60 7.36L71.60 7.36Q72.27 6.43 73.57 6.43L73.57 6.43L73.57 6.43Q74.87 6.43 75.54 7.20L75.54 7.20L75.54 7.20Q76.22 7.97 76.22 9.65L76.22 9.65L76.22 13.75L75.03 13.75L75.03 9.49L75.03 9.49Q75.03 8.47 74.57 7.99L74.57 7.99L74.57 7.99Q74.12 7.52 73.36 7.52L73.36 7.52L73.36 7.52Q71.60 7.52 71.60 9.46L71.60 9.46L71.60 13.75Z"></path></g><!----><g data-v-423bf9ae="" id="ba235372-5017-4549-8297-c27ff1579b6a" transform="matrix(2.8125,0,0,2.8125,0,0)" stroke="none" fill="white"><path d="M4.029 14.362L14.362 4.028l.707.707L4.736 15.07zM17.135 27.47L27.47 17.135l.707.707-10.333 10.333zM4.029 17.841l.707-.707 10.333 10.334-.707.707zM17.135 4.735l.708-.707L28.176 14.36l-.707.707z"></path><g><path d="M16 1.414l1.683 1.683L16 4.779l-1.683-1.683L16 1.414M16 0l-3.097 3.097L16 6.194l3.097-3.097L16 0zM16 27.221l1.683 1.683L16 30.586l-1.683-1.683L16 27.221m0-1.415l-3.097 3.097L16 32l3.097-3.097L16 25.806zM3.097 14.317L4.779 16l-1.683 1.683L1.414 16l1.683-1.683m0-1.414L0 16l3.097 3.097L6.194 16l-3.097-3.097zM28.903 14.317L30.586 16l-1.683 1.683L27.221 16l1.682-1.683m0-1.414L25.806 16l3.097 3.097L32 16l-3.097-3.097z"></path></g></g><!----></svg>